<svg width="148" height="32" viewBox="0 0 148 32" fill="none" xmlns="http://www.w3.org/2000/svg">
<path d="M53 29.5612V10.9873C53 10.5077 53.3041 10.2025 53.7821 10.2025C55.0421 10.2025 55.7373 11.1617 55.8677 12.4698C56.9539 11.3361 58.9092 9.94093 62.0376 9.94093C63.5583 9.94093 66.035 10.1589 65.557 11.5541L64.9922 13.1238C64.7749 13.7778 64.297 13.8214 63.819 13.6034C63.3411 13.3854 62.6024 13.0366 61.6465 13.0366C57.7795 13.0366 56.2153 15.609 56.2153 15.609V29.5612C56.2153 30.0844 55.7373 30.5204 55.2594 30.5204H53.9559C53.4345 30.5204 53 30.0844 53 29.5612Z" fill="#B7E4C7"/>
<path d="M67.864 20.4487C67.864 14.7806 71.5138 9.94093 77.5968 9.94093C82.8542 9.94093 86.6778 13.8214 86.6778 19.097C86.6778 19.4459 86.6344 19.9691 86.5909 20.3179C86.5475 20.8411 86.113 21.1899 85.6785 21.1899H71.0793C71.1662 24.5471 73.9904 28.0788 77.6402 28.0788C80.2907 28.0788 81.9418 27.1632 83.0715 26.4219C83.7667 25.9423 84.0708 25.7679 84.5922 26.5527L85.1136 27.294C85.5047 27.9044 85.6785 28.1224 84.9398 28.6892C83.7232 29.6484 81.0728 31 77.5968 31C71.5138 31 67.864 26.2039 67.864 20.4487ZM71.1227 18.6174H83.4625C83.3756 15.6526 81.0293 12.8622 77.5968 12.8622C74.2077 12.8622 71.5138 15.4782 71.1227 18.6174Z" fill="#B7E4C7"/>
<path d="M90.6487 20.4923C90.6487 14.5626 94.9937 9.94093 100.816 9.94093C103.814 9.94093 106.247 11.1181 108.116 13.2546C108.507 13.7342 108.42 14.301 107.942 14.6934L107.247 15.3474C106.595 15.9142 106.204 15.4782 105.813 15.0422C104.422 13.4726 102.815 12.8622 100.773 12.8622C96.949 12.8622 93.9075 16.263 93.9075 20.4487C93.9075 24.7215 96.9055 28.0788 100.642 28.0788C103.684 28.0788 104.987 26.5091 106.117 25.2011C106.682 24.5471 107.247 24.7215 107.811 25.2883L108.072 25.5499C108.507 25.9859 108.68 26.4219 108.333 26.9451C106.812 29.1688 104.118 31 100.773 31C94.8199 31 90.6487 26.5527 90.6487 20.4923Z" fill="#B7E4C7"/>
<path d="M112.113 24.4163C112.113 20.5795 114.981 17.7454 120.151 17.7454C122.28 17.7454 124.453 18.3994 124.453 18.3994C124.496 14.6934 122.715 12.8622 119.847 12.8622C117.631 12.8622 116.11 13.7342 115.198 14.0394C114.677 14.2574 114.416 13.9958 114.242 13.5162L113.808 12.339C113.634 11.7286 113.938 11.4669 114.416 11.2489C115.415 10.8129 117.24 9.94093 120.021 9.94093C125.148 9.94093 127.538 12.993 127.538 18.3994V29.91C127.538 30.3896 127.234 30.6948 126.756 30.6948C125.452 30.6948 124.757 29.692 124.627 28.3404C123.584 29.4304 121.455 31 118.326 31C114.807 31 112.113 28.4712 112.113 24.4163ZM115.285 24.4163C115.285 26.4655 116.675 28.0788 118.891 28.0788C121.368 28.0788 123.54 26.6835 124.409 25.3755V21.2771C123.758 20.9283 122.15 20.4923 120.151 20.4923C117.37 20.4923 115.285 21.8439 115.285 24.4163Z" fill="#B7E4C7"/>
<path d="M134.347 29.5612V0.959213C134.347 0.479608 134.781 0 135.302 0H136.606C137.084 0 137.562 0.479608 137.562 0.959213V29.5612C137.562 30.0844 137.084 30.5204 136.606 30.5204H135.302C134.781 30.5204 134.347 30.0844 134.347 29.5612Z" fill="#B7E4C7"/>
<path d="M144.785 29.5612V0.959213C144.785 0.479608 145.219 0 145.741 0H147.044C147.522 0 148 0.479608 148 0.959213V29.5612C148 30.0844 147.522 30.5204 147.044 30.5204H145.741C145.219 30.5204 144.785 30.0844 144.785 29.5612Z" fill="#B7E4C7"/>
<path d="M1 5.08511C1 3.38125 2.34315 2 4 2H34C35.6569 2 37 3.38125 37 5.08511V27.9149C37 29.6187 35.6569 31 34 31H4C2.34315 31 1 29.6187 1 27.9149V5.08511Z" fill="#B7E4C7"/>
<path d="M29.2 23.5957H9.4M20.2 18.6596H9.4M4 31H34C35.6569 31 37 29.6187 37 27.9149V5.08511C37 3.38125 35.6569 2 34 2H4C2.34315 2 1 3.38125 1 5.08511V27.9149C1 29.6187 2.34315 31 4 31Z" stroke="#B7E4C7" stroke-width="2" stroke-linecap="round"/>
<path d="M29.2 23.5957H9.4M20.2 18.6596H9.4M4 31H34C35.6569 31 37 29.6187 37 27.9149V5.08511C37 3.38125 35.6569 2 34 2H4C2.34315 2 1 3.38125 1 5.08511V27.9149C1 29.6187 2.34315 31 4 31Z" stroke="#2F4F4F" stroke-width="2" stroke-linecap="round"/>
</svg>
